<svg width="84" height="91" viewBox="0 0 84 91" fill="none" xmlns="http://www.w3.org/2000/svg">
<path fill-rule="evenodd" clip-rule="evenodd" d="M84 0H0V91H26.392V22.392H35.1281V32.088C36.856 29.08 39.416 26.584 42.808 24.6C46.264 22.552 50.264 21.528 54.808 21.528C59.48 21.528 63.704 22.648 67.48 24.888C71.32 27.128 74.328 30.296 76.504 34.392C78.6801 38.424 79.768 43.128 79.768 48.504C79.768 53.816 78.6801 58.552 76.504 62.712C74.328 66.872 71.32 70.104 67.48 72.408C63.704 74.712 59.48 75.864 54.808 75.864C50.328 75.864 46.36 74.872 42.9041 72.888C39.512 70.84 36.92 68.312 35.1281 65.304V91H84V0ZM68.4401 38.136C70.04 41.08 70.84 44.536 70.84 48.504C70.84 52.536 70.04 56.056 68.4401 59.064C66.84 62.008 64.664 64.28 61.912 65.88C59.224 67.416 56.248 68.184 52.984 68.184C49.7841 68.184 46.808 67.416 44.056 65.88C41.368 64.28 39.192 62.008 37.528 59.064C35.928 56.056 35.1281 52.568 35.1281 48.6C35.1281 44.696 35.928 41.272 37.528 38.328C39.192 35.32 41.368 33.048 44.056 31.512C46.808 29.912 49.7841 29.112 52.984 29.112C56.248 29.112 59.224 29.88 61.912 31.416C64.664 32.952 66.84 35.192 68.4401 38.136Z" fill="url(#paint0_linear_102_7)"/>
<defs>
<linearGradient id="paint0_linear_102_7" x1="15.5" y1="0" x2="84" y2="0" gradientUnits="userSpaceOnUse">
<stop stop-color="#4A00E0"/>
<stop offset="1" stop-color="#8E2DE2"/>
</linearGradient>
</defs>
</svg>
