<svg width="668" height="442" viewBox="0 0 668 442" fill="none" xmlns="http://www.w3.org/2000/svg">
<path d="M374.046 337.329L505.988 66.67L375.378 3L243.436 273.658L374.046 337.329Z" fill="#77BA85"/>
<path d="M374.046 337.329L505.988 66.67L375.378 3L243.436 273.658L374.046 337.329Z" stroke="#474747" stroke-width="6" stroke-miterlimit="10" stroke-linecap="round" stroke-linejoin="round"/>
<path d="M454.3 59.93L412.5 39.53C404.6 55.83 385 62.53 368.7 54.63L265.7 265.83L366.4 314.93L469.4 103.73C453.1 95.83 446.3 76.23 454.3 59.93Z" fill="#F6F9EA"/>
<path d="M454.3 59.93L412.5 39.53C404.6 55.83 385 62.53 368.7 54.63L265.7 265.83L366.4 314.93L469.4 103.73C453.1 95.83 446.3 76.23 454.3 59.93Z" stroke="#474747" stroke-width="6" stroke-miterlimit="10" stroke-linecap="round" stroke-linejoin="round"/>
<path d="M483.741 74.292L383.065 25.213L265.715 265.939L366.392 315.017L483.741 74.292Z" stroke="#474747" stroke-width="6" stroke-miterlimit="10" stroke-linecap="round" stroke-linejoin="round"/>
<path d="M384.7 183.33C403.644 183.33 419 167.974 419 149.03C419 130.087 403.644 114.73 384.7 114.73C365.757 114.73 350.4 130.087 350.4 149.03C350.4 167.974 365.757 183.33 384.7 183.33Z" fill="#77BA85"/>
<path d="M384.7 183.33C403.644 183.33 419 167.974 419 149.03C419 130.087 403.644 114.73 384.7 114.73C365.757 114.73 350.4 130.087 350.4 149.03C350.4 167.974 365.757 183.33 384.7 183.33Z" stroke="#474747" stroke-width="6" stroke-miterlimit="10" stroke-linecap="round" stroke-linejoin="round"/>
<path opacity="0.15" d="M3 438.73H665" stroke="#474747" stroke-width="6" stroke-miterlimit="10" stroke-linecap="round" stroke-linejoin="round"/>
<path d="M393.4 438.73H183.4C150.3 438.73 123.4 411.83 123.4 378.73V142.73C123.4 109.63 150.3 82.73 183.4 82.73H393.4C426.5 82.73 453.4 109.63 453.4 142.73V378.73C453.4 411.93 426.6 438.73 393.4 438.73Z" fill="#F58870"/>
<path d="M393.4 438.73H183.4C150.3 438.73 123.4 411.83 123.4 378.73V142.73C123.4 109.63 150.3 82.73 183.4 82.73H393.4C426.5 82.73 453.4 109.63 453.4 142.73V378.73C453.4 411.93 426.6 438.73 393.4 438.73Z" fill="#8E2DE2"/>
<path d="M393.4 426.63H183.4C150.3 426.63 123.4 399.73 123.4 366.63V378.73C123.4 411.83 150.3 438.73 183.4 438.73H393.4C426.5 438.73 453.4 411.83 453.4 378.73V366.63C453.4 399.73 426.6 426.63 393.4 426.63Z" fill="#7611F7"/>
<path d="M393.4 82.73H183.4C150.3 82.73 123.4 107.43 123.4 137.83V150.73C123.4 120.33 150.3 95.63 183.4 95.63H393.4C426.5 95.63 453.4 120.33 453.4 150.73V137.83C453.4 107.43 426.6 82.73 393.4 82.73Z" fill="#664DE5"/>
<path opacity="0.3" d="M323.4 229.23H269.4C259.5 229.23 251.4 221.13 251.4 211.23V100.73C251.4 90.83 259.5 82.73 269.4 82.73H341.4V211.23C341.4 221.13 333.4 229.23 323.4 229.23Z" fill="#474747" stroke="#474747" stroke-width="6" stroke-miterlimit="10" stroke-linecap="round" stroke-linejoin="round"/>
<path d="M393.4 438.73H183.4C150.3 438.73 123.4 411.83 123.4 378.73V142.73C123.4 109.63 150.3 82.73 183.4 82.73H393.4C426.5 82.73 453.4 109.63 453.4 142.73V378.73C453.4 411.93 426.6 438.73 393.4 438.73Z" stroke="#474747" stroke-width="6" stroke-miterlimit="10" stroke-linecap="round" stroke-linejoin="round"/>
<g opacity="0.46">
<path opacity="0.46" d="M145.4 377.23V144.23C145.4 123.23 162.4 106.23 183.4 106.23H393.4C414.4 106.23 431.4 123.23 431.4 144.23V377.13C431.4 398.13 414.4 415.13 393.4 415.13H183.4C162.4 415.23 145.4 398.23 145.4 377.23Z" stroke="#474747" stroke-width="4" stroke-linecap="round" stroke-linejoin="round" stroke-dasharray="13.96 13.96"/>
</g>
<path d="M315.4 218.23H261.4C251.5 218.23 243.4 210.13 243.4 200.23V78.23C243.4 68.33 251.5 60.23 261.4 60.23H315.4C325.3 60.23 333.4 68.33 333.4 78.23V200.23C333.4 210.13 325.4 218.23 315.4 218.23Z" fill="#664DE5"/>
<path d="M315.4 209.93H261.4C251.5 209.93 243.4 201.83 243.4 191.93V200.23C243.4 210.13 251.5 218.23 261.4 218.23H315.4C325.3 218.23 333.4 210.13 333.4 200.23V191.93C333.4 201.83 325.4 209.93 315.4 209.93Z" fill="white"/>
<path d="M315.4 60.23H261.4C251.5 60.23 243.4 68.33 243.4 78.23V85.03C243.4 75.13 251.5 67.03 261.4 67.03H315.4C325.3 67.03 333.4 75.13 333.4 85.03V78.23C333.4 68.33 325.4 60.23 315.4 60.23Z" fill="white"/>
<path d="M315.4 218.23H261.4C251.5 218.23 243.4 210.13 243.4 200.23V78.23C243.4 68.33 251.5 60.23 261.4 60.23H315.4C325.3 60.23 333.4 68.33 333.4 78.23V200.23C333.4 210.13 325.4 218.23 315.4 218.23Z" stroke="#474747" stroke-width="6" stroke-miterlimit="10" stroke-linecap="round" stroke-linejoin="round"/>
<path opacity="0.3" d="M291.4 192.43C304.213 192.43 314.6 182.043 314.6 169.23C314.6 156.417 304.213 146.03 291.4 146.03C278.587 146.03 268.2 156.417 268.2 169.23C268.2 182.043 278.587 192.43 291.4 192.43Z" fill="#474747" stroke="#474747" stroke-width="6" stroke-miterlimit="10" stroke-linecap="round" stroke-linejoin="round"/>
<g opacity="0.46">
<path opacity="0.46" d="M261.4 206.23C258.1 206.23 255.4 203.53 255.4 200.23V78.23C255.4 74.93 258.1 72.23 261.4 72.23H315.4C318.7 72.23 321.4 74.93 321.4 78.23V200.23C321.4 203.53 318.7 206.23 315.4 206.23H261.4Z" stroke="#474747" stroke-width="4" stroke-linecap="round" stroke-linejoin="round" stroke-dasharray="9.84 9.84"/>
</g>
<path d="M288.4 186.43C301.213 186.43 311.6 176.043 311.6 163.23C311.6 150.417 301.213 140.03 288.4 140.03C275.587 140.03 265.2 150.417 265.2 163.23C265.2 176.043 275.587 186.43 288.4 186.43Z" fill="#8F6D5D"/>
<path d="M288.4 186.43C301.213 186.43 311.6 176.043 311.6 163.23C311.6 150.417 301.213 140.03 288.4 140.03C275.587 140.03 265.2 150.417 265.2 163.23C265.2 176.043 275.587 186.43 288.4 186.43Z" stroke="#474747" stroke-width="6" stroke-miterlimit="10" stroke-linecap="round" stroke-linejoin="round"/>
<g opacity="0.6">
<path opacity="0.6" d="M298.2 151.33C299 155.13 294.5 157.53 287.9 158.93C281.2 160.23 275.2 160.43 274.4 157.23C273.6 154.13 278.1 148.23 284.7 146.33C291.4 144.43 297.4 147.63 298.2 151.33Z" fill="#FFFCEE"/>
</g>
<path d="M622.3 438.73H552.3C548.3 438.73 545 435.43 545 431.43V426.53C545 422.53 548.3 419.23 552.3 419.23H622.3C626.3 419.23 629.6 422.53 629.6 426.53V431.43C629.6 435.53 626.3 438.73 622.3 438.73Z" fill="#FDB740"/>
<path opacity="0.88" d="M622.3 421.33H552.3C548.3 421.33 545 424.63 545 428.63V431.43C545 427.43 548.3 424.13 552.3 424.13H622.3C626.3 424.13 629.6 427.43 629.6 431.43V428.63C629.6 424.63 626.3 421.33 622.3 421.33Z" fill="#FFF3C0"/>
<path d="M622.3 436.53H552.3C548.3 436.53 545 433.23 545 429.23V426.43C545 430.43 548.3 433.73 552.3 433.73H622.3C626.3 433.73 629.6 430.43 629.6 426.43V429.23C629.6 433.33 626.3 436.53 622.3 436.53Z" fill="#F29E25"/>
<path d="M622.3 438.73H552.3C548.3 438.73 545 435.43 545 431.43V426.53C545 422.53 548.3 419.23 552.3 419.23H622.3C626.3 419.23 629.6 422.53 629.6 426.53V431.43C629.6 435.53 626.3 438.73 622.3 438.73Z" stroke="#474747" stroke-width="6" stroke-miterlimit="10" stroke-linecap="round" stroke-linejoin="round"/>
<path d="M634 419.33H564C560 419.33 556.7 416.03 556.7 412.03V407.13C556.7 403.13 560 399.83 564 399.83H634C638 399.83 641.3 403.13 641.3 407.13V412.03C641.2 416.13 638 419.33 634 419.33Z" fill="#FDB740"/>
<path opacity="0.88" d="M634 401.93H564C560 401.93 556.7 405.23 556.7 409.23V412.03C556.7 408.03 560 404.73 564 404.73H634C638 404.73 641.3 408.03 641.3 412.03V409.23C641.2 405.23 638 401.93 634 401.93Z" fill="#FFF3C0"/>
<path d="M634 417.13H564C560 417.13 556.7 413.83 556.7 409.83V407.03C556.7 411.03 560 414.33 564 414.33H634C638 414.33 641.3 411.03 641.3 407.03V409.83C641.2 413.93 638 417.13 634 417.13Z" fill="#F29E25"/>
<path d="M634 419.33H564C560 419.33 556.7 416.03 556.7 412.03V407.13C556.7 403.13 560 399.83 564 399.83H634C638 399.83 641.3 403.13 641.3 407.13V412.03C641.2 416.13 638 419.33 634 419.33Z" stroke="#474747" stroke-width="6" stroke-miterlimit="10" stroke-linecap="round" stroke-linejoin="round"/>
<path d="M622.3 399.93H552.3C548.3 399.93 545 396.63 545 392.63V387.73C545 383.73 548.3 380.43 552.3 380.43H622.3C626.3 380.43 629.6 383.73 629.6 387.73V392.63C629.6 396.73 626.3 399.93 622.3 399.93Z" fill="#FDB740"/>
<path opacity="0.88" d="M622.3 382.63H552.3C548.3 382.63 545 385.93 545 389.93V392.73C545 388.73 548.3 385.43 552.3 385.43H622.3C626.3 385.43 629.6 388.73 629.6 392.73V389.93C629.6 385.83 626.3 382.63 622.3 382.63Z" fill="#FFF3C0"/>
<path d="M622.3 397.83H552.3C548.3 397.83 545 394.53 545 390.53V387.73C545 391.73 548.3 395.03 552.3 395.03H622.3C626.3 395.03 629.6 391.73 629.6 387.73V390.53C629.6 394.53 626.3 397.83 622.3 397.83Z" fill="#F29E25"/>
<path d="M622.3 399.93H552.3C548.3 399.93 545 396.63 545 392.63V387.73C545 383.73 548.3 380.43 552.3 380.43H622.3C626.3 380.43 629.6 383.73 629.6 387.73V392.63C629.6 396.73 626.3 399.93 622.3 399.93Z" stroke="#474747" stroke-width="6" stroke-miterlimit="10" stroke-linecap="round" stroke-linejoin="round"/>
<path d="M543.1 385.33L495.3 436.43C492.6 439.33 488 439.53 485 436.73L481.5 433.43C478.6 430.73 478.4 426.13 481.2 423.13L529 372.03C531.7 369.13 536.3 368.93 539.3 371.73L542.8 375.03C545.6 377.83 545.8 382.33 543.1 385.33Z" fill="#FDB740"/>
<path opacity="0.88" d="M530.4 373.43L482.6 424.53C479.9 427.43 480 432.03 482.9 434.83L485 436.73C482.1 434.03 481.9 429.43 484.7 426.43L532.5 375.33C535.2 372.43 539.8 372.23 542.8 375.03L540.7 373.13C537.7 370.33 533.1 370.53 530.4 373.43Z" fill="#FFF3C0"/>
<path d="M541.5 383.83L493.7 434.93C491 437.83 486.4 438.03 483.4 435.23L481.3 433.33C484.2 436.03 488.8 435.93 491.6 433.03L539.4 381.93C542.1 379.03 542 374.43 539.1 371.63L541.2 373.53C544 376.33 544.2 380.93 541.5 383.83Z" fill="#F29E25"/>
<path d="M543.1 385.33L495.3 436.43C492.6 439.33 488 439.53 485 436.73L481.5 433.43C478.6 430.73 478.4 426.13 481.2 423.13L529 372.03C531.7 369.13 536.3 368.93 539.3 371.73L542.8 375.03C545.6 377.83 545.8 382.33 543.1 385.33Z" stroke="#474747" stroke-width="6" stroke-miterlimit="10" stroke-linecap="round" stroke-linejoin="round"/>
</svg>
